<svg width="25" height="24" viewBox="0 0 25 24" fill="none" xmlns="http://www.w3.org/2000/svg">
<path d="M15.96 12.7101C16.9404 11.9388 17.656 10.881 18.0072 9.68407C18.3585 8.48709 18.3279 7.21039 17.9198 6.03159C17.5117 4.85279 16.7463 3.83052 15.7301 3.10698C14.7139 2.38344 13.4974 1.99463 12.25 1.99463C11.0025 1.99463 9.78611 2.38344 8.76993 3.10698C7.75374 3.83052 6.98834 4.85279 6.58021 6.03159C6.17208 7.21039 6.14151 8.48709 6.49276 9.68407C6.84401 10.881 7.5596 11.9388 8.54 12.7101C6.86007 13.3832 5.39428 14.4995 4.29889 15.94C3.20349 17.3806 2.51956 19.0914 2.32 20.8901C2.30555 21.0214 2.31711 21.1543 2.35402 21.2812C2.39093 21.408 2.45246 21.5264 2.53511 21.6294C2.70202 21.8376 2.94478 21.971 3.21 22.0001C3.47521 22.0293 3.74116 21.9519 3.94932 21.785C4.15749 21.6181 4.29082 21.3753 4.32 21.1101C4.53958 19.1553 5.47168 17.3499 6.93822 16.0389C8.40475 14.7279 10.3029 14.0032 12.27 14.0032C14.2371 14.0032 16.1352 14.7279 17.6018 16.0389C19.0683 17.3499 20.0004 19.1553 20.22 21.1101C20.2472 21.3558 20.3644 21.5828 20.5491 21.7471C20.7338 21.9115 20.9728 22.0016 21.22 22.0001H21.33C21.5921 21.97 21.8317 21.8374 21.9966 21.6314C22.1614 21.4253 22.2381 21.1625 22.21 20.9001C22.0095 19.0963 21.3219 17.3811 20.2208 15.9383C19.1198 14.4955 17.6469 13.3796 15.96 12.7101ZM12.25 12.0001C11.4589 12.0001 10.6855 11.7655 10.0277 11.326C9.36992 10.8865 8.85723 10.2618 8.55448 9.53086C8.25173 8.79995 8.17251 7.99569 8.32686 7.21976C8.4812 6.44384 8.86216 5.73111 9.42157 5.1717C9.98098 4.61229 10.6937 4.23132 11.4696 4.07698C12.2456 3.92264 13.0498 4.00186 13.7807 4.30461C14.5116 4.60736 15.1363 5.12005 15.5759 5.77784C16.0154 6.43564 16.25 7.209 16.25 8.00012C16.25 9.06099 15.8286 10.0784 15.0784 10.8286C14.3283 11.5787 13.3109 12.0001 12.25 12.0001Z" fill="#252D3E" fill-opacity="0.5"/>
</svg>
