<svg width="24" height="24" viewBox="0 0 24 24" fill="none" xmlns="http://www.w3.org/2000/svg">
<path d="M12 20.0144C11.4494 20.0153 10.9077 19.875 10.4269 19.6068C5.29686 16.7309 2.47198 13.1883 2.47198 9.6318C2.47198 6.4638 4.68823 3.98242 7.51723 3.98242C8.35962 3.98315 9.19274 4.15816 9.9642 4.49646C10.7357 4.83476 11.4288 5.32902 12 5.94817C12.5712 5.32902 13.2643 4.83476 14.0358 4.49646C14.8072 4.15816 15.6404 3.98315 16.4827 3.98242C19.3117 3.98242 21.528 6.4638 21.528 9.6318C21.528 13.1883 18.7031 16.7309 13.5731 19.6068C13.0922 19.8749 12.5506 20.0153 12 20.0144ZM7.51723 5.10742C5.28223 5.10742 3.59698 7.05255 3.59698 9.6318C3.59698 12.7634 6.21786 15.9573 10.9766 18.625C11.2896 18.7992 11.6418 18.8906 12 18.8906C12.3581 18.8906 12.7104 18.7992 13.0234 18.625C17.7821 15.9573 20.403 12.7634 20.403 9.6318C20.403 7.05255 18.7177 5.10742 16.4827 5.10742C15.7013 5.10998 14.9312 5.2956 14.2344 5.64941C13.5376 6.00322 12.9334 6.51537 12.4702 7.1448C12.4198 7.22328 12.3501 7.28755 12.2678 7.33146C12.1855 7.37538 12.0933 7.39748 12 7.39567C11.9075 7.3955 11.8164 7.37252 11.7349 7.32876C11.6534 7.285 11.584 7.22181 11.5327 7.1448C11.0693 6.51496 10.4646 6.00256 9.76719 5.64873C9.06983 5.29491 8.29922 5.10951 7.51723 5.10742Z" fill="#7734BA"/>
</svg>
