<svg width="24" height="15" viewBox="0 0 24 15" fill="none" xmlns="http://www.w3.org/2000/svg">
<g clip-path="url(#clip0_1849_1664)">
<path d="M9.82918 0.133057C10.6195 0.1364 11.4095 0.132753 12.1997 0.13488C12.4864 0.154637 12.7739 0.135792 13.0608 0.146431C13.0472 0.402665 13.0511 0.658899 13.0511 0.915437C12.2529 0.915437 11.4547 0.913613 10.6565 0.916349C10.6562 1.29903 10.6575 1.68201 10.6562 2.065C11.1043 2.0653 11.5523 2.06712 12 2.06378C12.0022 2.30846 11.9991 2.55315 12.0022 2.79783C11.5538 2.8033 11.1052 2.79631 10.6569 2.80117C10.6584 3.76532 10.6526 4.72916 10.6599 5.693C10.3793 5.69908 10.0988 5.69908 9.81824 5.69331C9.82736 4.87385 9.81064 4.05408 9.82857 3.23492C9.82857 2.20086 9.82705 1.16681 9.82918 0.133057Z" fill="#231F20"/>
<path d="M13.3453 0.135276C13.6249 0.134668 13.9046 0.132236 14.1842 0.136492C14.1769 0.87571 14.1921 1.61554 14.1748 2.35445C14.1754 3.22589 14.1748 4.09703 14.1751 4.96847C14.1739 5.21133 14.1803 5.45449 14.1645 5.69705C13.7119 5.70373 13.2599 5.68276 12.8076 5.68762C12.1875 5.68823 11.5678 5.68641 10.948 5.68884C10.9483 5.43109 10.9568 5.17333 10.9535 4.91558C11.7504 4.91649 12.5474 4.91467 13.3447 4.91679C13.3493 4.53108 13.3456 4.14536 13.3462 3.75994C12.8982 3.75873 12.4505 3.75842 12.0024 3.75964C12.0018 3.51465 12.0033 3.26936 12.0018 3.02437C12.4498 3.01677 12.8982 3.0268 13.3465 3.0192C13.3462 2.05779 13.348 1.09638 13.3453 0.135276Z" fill="#231F20"/>
<path d="M0.155224 8.12072C1.56831 8.12072 2.98109 8.12194 4.39418 8.12012C4.3957 8.50006 4.39722 8.88 4.39357 9.26025C3.39569 9.25995 2.3975 9.25934 1.39931 9.26056C1.39992 9.73746 1.3987 10.2147 1.39992 10.6916C2.27379 10.6898 3.14766 10.6913 4.02123 10.691C4.02609 11.0697 4.02032 11.4484 4.02427 11.8272C3.14948 11.8262 2.27501 11.8281 1.40053 11.8262C1.3984 12.7247 1.39931 13.6232 1.39992 14.5217C0.985629 14.5172 0.571338 14.5172 0.157047 14.5214C0.152488 12.388 0.15644 10.2542 0.155224 8.12072Z" fill="#231F20"/>
<path d="M5.2185 14.5218C5.21698 12.3874 5.21668 10.253 5.2188 8.11865C6.679 8.12321 8.13951 8.12078 9.60001 8.11987C9.60031 8.50012 9.59849 8.88036 9.60092 9.26031C8.5465 9.26031 7.49178 9.25848 6.43736 9.26152C6.4407 9.70773 6.43766 10.1542 6.43888 10.6008C7.40728 10.5983 8.37538 10.5998 9.34378 10.5998C9.34013 10.9783 9.34438 11.357 9.34104 11.7354C8.37386 11.7363 7.40637 11.7369 6.43918 11.7348C6.43675 12.2825 6.44162 12.8303 6.43675 13.3777C7.53889 13.3813 8.64103 13.3783 9.74348 13.3792C9.74621 13.7591 9.74621 14.1391 9.74348 14.5193C8.23525 14.5206 6.72672 14.5154 5.2185 14.5218Z" fill="#231F20"/>
<path d="M10.6787 8.11865C11.1176 8.122 11.5565 8.12291 11.9954 8.11865C12.7872 9.60591 13.5787 11.0932 14.3721 12.5795C14.3748 11.0935 14.3745 9.60743 14.3721 8.12169C14.759 8.11956 15.1459 8.1223 15.5329 8.12017C15.5347 10.2536 15.5344 12.3871 15.5332 14.5206C15.1192 14.5175 14.7052 14.5193 14.2915 14.5193C13.4793 12.9962 12.6654 11.474 11.8489 9.95302C11.8492 11.4758 11.8495 12.9984 11.8486 14.5212C11.4587 14.5178 11.0684 14.5163 10.6781 14.5221C10.6808 12.3877 10.6796 10.253 10.6787 8.11865Z" fill="#231F20"/>
<path d="M16.7214 8.11987C17.6253 8.12261 18.5293 8.11987 19.4333 8.12139C19.929 8.1293 20.4366 8.26911 20.8187 8.59647C21.219 8.91015 21.4527 9.38311 21.5989 9.86001C21.7223 10.2944 21.7673 10.7473 21.7749 11.1977C21.757 11.8935 21.6588 12.6059 21.3375 13.2321C21.1363 13.6658 20.8011 14.04 20.381 14.2707C20.0731 14.4382 19.7214 14.5087 19.3737 14.5178C18.4904 14.5221 17.6068 14.5145 16.7235 14.5218C16.7174 12.3877 16.7217 10.2536 16.7214 8.11987ZM17.9533 9.23539C17.95 10.6248 17.9515 12.0141 17.9524 13.4035C18.3454 13.4017 18.7381 13.4035 19.1311 13.4026C19.2919 13.3983 19.4561 13.3783 19.6044 13.3132C19.8916 13.1947 20.0956 12.9379 20.2308 12.6664C20.4591 12.1716 20.509 11.6141 20.4941 11.0758C20.4804 10.56 20.402 10.0077 20.0618 9.598C19.8573 9.34451 19.5187 9.26031 19.208 9.23995C18.7898 9.23235 18.3715 9.24147 17.9533 9.23539Z" fill="#231F20"/>
<path d="M22.6063 14.5231C22.6017 12.3881 22.6023 10.2531 22.606 8.11816C23.0196 8.12424 23.4336 8.11968 23.8473 8.11999C23.8491 10.2528 23.8501 12.386 23.847 14.5192C23.4333 14.521 23.0196 14.5131 22.6063 14.5231Z" fill="#231F20"/>
</g>
<defs>
<clipPath id="clip0_1849_1664">
<rect width="24" height="14.616" fill="white"/>
</clipPath>
</defs>
</svg>
