<svg width="18" height="18" viewBox="0 0 18 18" fill="none" xmlns="http://www.w3.org/2000/svg">
<path fill-rule="evenodd" clip-rule="evenodd" d="M3.75 3L3.75 3.87802C2.87611 4.18688 2.25 5.02035 2.25 6C2.25 6.97965 2.87611 7.81313 3.75 8.12197L3.75 15C3.75 15.4142 4.08579 15.75 4.5 15.75C4.91421 15.75 5.25 15.4142 5.25 15L5.25 8.12197C6.12389 7.81312 6.75 6.97965 6.75 6C6.75 5.02035 6.12389 4.18688 5.25 3.87802L5.25 3C5.25 2.58578 4.91421 2.25 4.5 2.25C4.08579 2.25 3.75 2.58578 3.75 3ZM5.25 6C5.25 5.58578 4.91421 5.25 4.5 5.25C4.08579 5.25 3.75 5.58578 3.75 6C3.75 6.41422 4.08579 6.75 4.5 6.75C4.91421 6.75 5.25 6.41422 5.25 6ZM9 15.75C8.58577 15.75 8.25 15.4142 8.25 15L8.25 14.122C7.37611 13.8131 6.75 12.9797 6.75 12C6.75 11.0203 7.37611 10.1869 8.25 9.87802L8.25 3C8.25 2.58578 8.58577 2.25 9 2.25C9.41422 2.25 9.75 2.58578 9.75 3L9.75 9.87802C10.6239 10.1869 11.25 11.0203 11.25 12C11.25 12.9797 10.6239 13.8131 9.75 14.122L9.75 15C9.75 15.4142 9.41423 15.75 9 15.75ZM9.75 12C9.75 11.5858 9.41422 11.25 9 11.25C8.58577 11.25 8.25 11.5858 8.25 12C8.25 12.4142 8.58577 12.75 9 12.75C9.41422 12.75 9.75 12.4142 9.75 12ZM12.75 15C12.75 15.4142 13.0858 15.75 13.5 15.75C13.9142 15.75 14.25 15.4142 14.25 15L14.25 8.12197C15.1239 7.81312 15.75 6.97965 15.75 6C15.75 5.02035 15.1239 4.18687 14.25 3.87802L14.25 3C14.25 2.58577 13.9142 2.25 13.5 2.25C13.0858 2.25 12.75 2.58577 12.75 3L12.75 3.87802C11.8761 4.18687 11.25 5.02035 11.25 6C11.25 6.97965 11.8761 7.81312 12.75 8.12197L12.75 15ZM13.5 5.25C13.9142 5.25 14.25 5.58577 14.25 6C14.25 6.41422 13.9142 6.75 13.5 6.75C13.0858 6.75 12.75 6.41422 12.75 6C12.75 5.58577 13.0858 5.25 13.5 5.25Z" fill="#7734BA"/>
</svg>
