<svg width="22" height="18" viewBox="0 0 22 18" fill="none" xmlns="http://www.w3.org/2000/svg">
<path d="M1.4525 17.6549C1.37346 17.6553 1.2949 17.6426 1.22 17.6174C1.06336 17.5665 0.927818 17.4655 0.834289 17.33C0.740761 17.1944 0.694447 17.0319 0.702496 16.8674C0.702496 16.7549 1.475 5.86489 12.395 5.00989V1.0949C12.3949 0.945786 12.4392 0.800022 12.5223 0.676221C12.6054 0.55242 12.7235 0.456201 12.8616 0.399853C12.9996 0.343505 13.1513 0.329586 13.2973 0.359874C13.4433 0.390162 13.577 0.463282 13.6812 0.569896L21.0837 8.1299C21.2212 8.27009 21.2981 8.45858 21.2981 8.65489C21.2981 8.85121 21.2212 9.0397 21.0837 9.17989L13.6812 16.7399C13.577 16.8465 13.4433 16.9196 13.2973 16.9499C13.1513 16.9802 12.9996 16.9663 12.8616 16.9099C12.7235 16.8536 12.6054 16.7574 12.5223 16.6336C12.4392 16.5098 12.3949 16.364 12.395 16.2149V12.3749C5.105 12.6524 2.11625 17.2499 2.08625 17.3061C2.01858 17.413 1.925 17.501 1.8142 17.562C1.70339 17.623 1.57897 17.6549 1.4525 17.6549ZM13.895 2.93239V5.71114C13.8951 5.90559 13.8197 6.09248 13.6847 6.23241C13.5497 6.37233 13.3656 6.45434 13.1712 6.46114C6.10625 6.71989 3.57875 11.4261 2.67125 14.4524C4.54625 12.8324 7.8875 10.8524 13.1 10.8524H13.1337C13.3327 10.8524 13.5234 10.9314 13.6641 11.0721C13.8047 11.2127 13.8837 11.4035 13.8837 11.6024V14.3811L19.5087 8.65864L13.895 2.93239Z" fill="#7734BA"/>
</svg>
