<svg width="16" height="17" viewBox="0 0 16 17" fill="none" xmlns="http://www.w3.org/2000/svg">
<path d="M14.6666 7.23337C14.7333 6.90004 14.4666 6.50004 14.1333 6.50004L10.3333 5.96671L8.59998 2.50004C8.53331 2.36671 8.46665 2.30004 8.33331 2.23337C7.99998 2.03337 7.59998 2.16671 7.39998 2.50004L5.73331 5.96671L1.93331 6.50004C1.73331 6.50004 1.59998 6.56671 1.53331 6.70004C1.26665 6.96671 1.26665 7.36671 1.53331 7.63337L4.26665 10.3L3.59998 14.1C3.59998 14.2334 3.59998 14.3667 3.66665 14.5C3.86665 14.8334 4.26665 14.9667 4.59998 14.7667L7.99998 12.9667L11.4 14.7667C11.4666 14.8334 11.6 14.8334 11.7333 14.8334C11.8 14.8334 11.8 14.8334 11.8666 14.8334C12.2 14.7667 12.4666 14.4334 12.4 14.0334L11.7333 10.2334L14.4666 7.56671C14.6 7.50004 14.6666 7.36671 14.6666 7.23337Z" fill="white"/>
</svg>
