<svg width="25" height="24" viewBox="0 0 25 24" fill="none" xmlns="http://www.w3.org/2000/svg">
<path d="M12.7266 23C13.257 23 13.7657 22.7893 14.1408 22.4142C14.5159 22.0391 14.7266 21.5304 14.7266 21H10.7266C10.7266 21.5304 10.9373 22.0391 11.3124 22.4142C11.6875 22.7893 12.1962 23 12.7266 23ZM4.72659 19H20.7266C20.9243 19 21.1176 18.9413 21.2821 18.8314C21.4465 18.7215 21.5746 18.5654 21.6503 18.3827C21.7259 18.2 21.7457 17.9989 21.7072 17.805C21.6686 17.611 21.5734 17.4329 21.4336 17.293L19.7266 15.586V10C19.7234 8.3185 19.1155 6.69424 18.014 5.42379C16.9124 4.15334 15.3907 3.32145 13.7266 3.08V2C13.7266 1.73478 13.6212 1.48043 13.4337 1.29289C13.2462 1.10536 12.9918 1 12.7266 1C12.4614 1 12.207 1.10536 12.0195 1.29289C11.832 1.48043 11.7266 1.73478 11.7266 2V3.08C10.0625 3.32145 8.54078 4.15334 7.43923 5.42379C6.33769 6.69424 5.72981 8.3185 5.72659 10V15.586L4.01959 17.293C3.87978 17.4329 3.78458 17.611 3.74601 17.805C3.70744 17.9989 3.72725 18.2 3.80292 18.3827C3.87859 18.5654 4.00673 18.7215 4.17114 18.8314C4.33554 18.9413 4.52884 19 4.72659 19ZM7.43359 16.707C7.62114 16.5195 7.72654 16.2652 7.72659 16V10C7.72659 8.67392 8.25338 7.40215 9.19106 6.46447C10.1287 5.52678 11.4005 5 12.7266 5C14.0527 5 15.3244 5.52678 16.2621 6.46447C17.1998 7.40215 17.7266 8.67392 17.7266 10V16C17.7267 16.2652 17.832 16.5195 18.0196 16.707L18.3126 17H7.14059L7.43359 16.707Z" fill="white"/>
</svg>
