<svg width="14" height="14" viewBox="0 0 14 14" fill="none" xmlns="http://www.w3.org/2000/svg">
<path d="M13.6667 5.73313C13.7333 5.3998 13.4667 4.9998 13.1333 4.9998L9.33334 4.46646L7.60001 0.999796C7.53334 0.866463 7.46668 0.799796 7.33334 0.733129C7.00001 0.533129 6.60001 0.666463 6.40001 0.999796L4.73334 4.46646L0.933344 4.9998C0.733344 4.9998 0.60001 5.06646 0.533344 5.1998C0.266677 5.46646 0.266677 5.86646 0.533344 6.13313L3.26668 8.79979L2.60001 12.5998C2.60001 12.7331 2.60001 12.8665 2.66668 12.9998C2.86668 13.3331 3.26668 13.4665 3.60001 13.2665L7.00001 11.4665L10.4 13.2665C10.4667 13.3331 10.6 13.3331 10.7333 13.3331C10.8 13.3331 10.8 13.3331 10.8667 13.3331C11.2 13.2665 11.4667 12.9331 11.4 12.5331L10.7333 8.73313L13.4667 6.06646C13.6 5.9998 13.6667 5.86646 13.6667 5.73313Z" fill="#7734BA"/>
</svg>
