<svg width="24" height="24" viewBox="0 0 24 24" fill="none" xmlns="http://www.w3.org/2000/svg">
<path d="M2.4525 20.6549C2.37346 20.6553 2.2949 20.6426 2.22 20.6174C2.06336 20.5665 1.92782 20.4655 1.83429 20.33C1.74076 20.1944 1.69445 20.0319 1.7025 19.8674C1.7025 19.7549 2.475 8.86489 13.395 8.00989V4.0949C13.3949 3.94579 13.4392 3.80002 13.5223 3.67622C13.6054 3.55242 13.7235 3.4562 13.8616 3.39985C13.9996 3.3435 14.1513 3.32959 14.2973 3.35987C14.4433 3.39016 14.577 3.46328 14.6812 3.5699L22.0837 11.1299C22.2212 11.2701 22.2981 11.4586 22.2981 11.6549C22.2981 11.8512 22.2212 12.0397 22.0837 12.1799L14.6812 19.7399C14.577 19.8465 14.4433 19.9196 14.2973 19.9499C14.1513 19.9802 13.9996 19.9663 13.8616 19.9099C13.7235 19.8536 13.6054 19.7574 13.5223 19.6336C13.4392 19.5098 13.3949 19.364 13.395 19.2149V15.3749C6.105 15.6524 3.11625 20.2499 3.08625 20.3061C3.01858 20.413 2.925 20.501 2.8142 20.562C2.70339 20.6229 2.57897 20.6549 2.4525 20.6549ZM14.895 5.93239V8.71114C14.8951 8.90559 14.8197 9.09248 14.6847 9.23241C14.5497 9.37233 14.3656 9.45434 14.1712 9.46114C7.10625 9.71989 4.57875 14.4261 3.67125 17.4524C5.54625 15.8324 8.8875 13.8524 14.1 13.8524H14.1337C14.3327 13.8524 14.5234 13.9314 14.6641 14.0721C14.8047 14.2127 14.8837 14.4035 14.8837 14.6024V17.3811L20.5087 11.6586L14.895 5.93239Z" fill="#7734BA"/>
</svg>
