<svg width="20" height="18" viewBox="0 0 20 18" fill="none" xmlns="http://www.w3.org/2000/svg">
<path d="M17.66 0.990166C15.02 -0.809834 11.76 0.0301659 10 2.09017C8.24003 0.0301659 4.98003 -0.819834 2.34003 0.990166C0.94003 1.95017 0.0600301 3.57017 3.0118e-05 5.28017C-0.13997 9.16017 3.30003 12.2702 8.55003 17.0402L8.65003 17.1302C9.41003 17.8202 10.58 17.8202 11.34 17.1202L11.45 17.0202C16.7 12.2602 20.13 9.15017 20 5.27017C19.94 3.57017 19.06 1.95017 17.66 0.990166ZM10.1 15.5502L10 15.6502L9.90003 15.5502C5.14003 11.2402 2.00003 8.39017 2.00003 5.50017C2.00003 3.50017 3.50003 2.00017 5.50003 2.00017C7.04003 2.00017 8.54003 2.99017 9.07003 4.36017H10.94C11.46 2.99017 12.96 2.00017 14.5 2.00017C16.5 2.00017 18 3.50017 18 5.50017C18 8.39017 14.86 11.2402 10.1 15.5502Z" fill="#7734BA"/>
</svg>
