<svg width="24" height="24" viewBox="0 0 24 24" fill="none" xmlns="http://www.w3.org/2000/svg">
<path d="M10 7C10 7.3 9.9 7.5 9.7 7.7L4.7 12.7C4.3 13.1 3.7 13.1 3.3 12.7C2.9 12.3 2.9 11.7 3.3 11.3L8.3 6.3C8.7 5.9 9.3 5.9 9.7 6.3C9.9 6.5 10 6.7 10 7Z" fill="white"/>
<path d="M10 17C10 17.3 9.9 17.5 9.7 17.7C9.3 18.1 8.7 18.1 8.3 17.7L3.3 12.7C2.9 12.3 2.9 11.7 3.3 11.3C3.7 10.9 4.3 10.9 4.7 11.3L9.7 16.3C9.9 16.5 10 16.7 10 17Z" fill="white"/>
<path d="M21 12C21 12.6 20.6 13 20 13L4 13C3.4 13 3 12.6 3 12C3 11.4 3.4 11 4 11L20 11C20.6 11 21 11.4 21 12Z" fill="white"/>
</svg>
